# xmcd CD database file
#
# Track frame offsets:
#	150
#	19372
#	40732
#	65420
#	85812
#	110513
#	126360
#	154014
#	164461
#	178719
#	191661
#	207564
#	221489
#	238823
#	256749
#	270930
#
# Disc length: 3831 seconds
#
# Revision: 0
# Processed by: cddbd v1.5.2PL0 Copyright (c) Steve Scherf et al.
# Submitted via: CDex 1.70beta2
#
DISCID=e30ef510
DTITLE=Late Night Moods Vol. 3 - CD 2
DYEAR=2008
DGENRE=Jazz
TTITLE0=Joss Stone - Bruised But Not Broken
TTITLE1=Amos Lee - Careless
TTITLE2=George Michael - You Have Been Loved
TTITLE3=Keren Ann - Ailleurs
TTITLE4=Freddie Jackson - I Could Use A Little Love
TTITLE5=Craig Armstrong - Wake Up In New York
TTITLE6=Molly Johnson - I Must Have Left My Heart
TTITLE7=Dinah Washington - Call Me Irresponsible
TTITLE8=Nat King Cole - On The Street Where You Live
TTITLE9=Julie London - Love Letters
TTITLE10=Ella Fitzgerald - Misty Blue
TTITLE11=Norah Jones - The Nearness Of You
TTITLE12=Corinne Bailey Rae - Butterfly
TTITLE13=Air - All I Need
TTITLE14=Royksopp - Sparks
TTITLE15=Anja Garbarek - Can I Keep Him?
EXTD=YEAR: 2008
EXTT0=
EXTT1=
EXTT2=
EXTT3=
EXTT4=
EXTT5=
EXTT6=
EXTT7=
EXTT8=
EXTT9=
EXTT10=
EXTT11=
EXTT12=
EXTT13=
EXTT14=
EXTT15=
PLAYORDER=
